<svg width="1726" height="617" viewBox="0 0 1726 617" fill="none" xmlns="http://www.w3.org/2000/svg">
<path fill-rule="evenodd" clip-rule="evenodd" d="M-2 256.5L39.76 240.958C80.08 225.417 162.16 194.333 244.24 225.417C327.76 256.5 409.84 349.75 491.92 380.833C574 411.917 656.08 380.833 738.16 349.75C820.24 318.667 903.76 287.583 985.84 272.042C1067.92 256.5 1150 256.5 1232.08 256.5C1314.16 256.5 1396.24 256.5 1479.76 225.417C1561.84 194.333 1643.92 132.167 1684.24 101.083L1726 70V443H1684.24C1643.92 443 1561.84 443 1479.76 443C1396.24 443 1314.16 443 1232.08 443C1150 443 1067.92 443 985.84 443C903.76 443 820.24 443 738.16 443C656.08 443 574 443 491.92 443C409.84 443 327.76 443 244.24 443C162.16 443 80.08 443 39.76 443H-2V256.5Z" fill="url(#paint0_linear_10_425)" style="mix-blend-mode:overlay"/>
<path fill-rule="evenodd" clip-rule="evenodd" d="M-2 256.5L39.76 240.958C80.08 225.417 162.16 194.333 244.24 225.417C327.76 256.5 409.84 349.75 491.92 380.833C574 411.917 656.08 380.833 738.16 349.75C820.24 318.667 903.76 287.583 985.84 272.042C1067.92 256.5 1150 256.5 1232.08 256.5C1314.16 256.5 1396.24 256.5 1479.76 225.417C1561.84 194.333 1643.92 132.167 1684.24 101.083L1726 70V443H1684.24C1643.92 443 1561.84 443 1479.76 443C1396.24 443 1314.16 443 1232.08 443C1150 443 1067.92 443 985.84 443C903.76 443 820.24 443 738.16 443C656.08 443 574 443 491.92 443C409.84 443 327.76 443 244.24 443C162.16 443 80.08 443 39.76 443H-2V256.5Z" stroke="black"/>
<path fill-rule="evenodd" clip-rule="evenodd" d="M-20 0L27.9875 11.4259C77.4292 22.8519 173.404 45.7037 270.833 114.259C368.262 182.815 464.237 297.074 561.667 319.926C659.096 342.778 755.071 274.222 852.5 285.648C949.929 297.074 1045.9 388.481 1143.33 388.481C1240.76 388.481 1336.74 297.074 1434.17 274.222C1531.6 251.37 1627.57 297.074 1677.01 319.926L1725 342.778V617H1677.01C1627.57 617 1531.6 617 1434.17 617C1336.74 617 1240.76 617 1143.33 617C1045.9 617 949.929 617 852.5 617C755.071 617 659.096 617 561.667 617C464.237 617 368.262 617 270.833 617C173.404 617 77.4292 617 27.9875 617H-20V0Z" fill="url(#paint1_linear_10_425)" style="mix-blend-mode:overlay"/>
<path fill-rule="evenodd" clip-rule="evenodd" d="M-20 0L27.9875 11.4259C77.4292 22.8519 173.404 45.7037 270.833 114.259C368.262 182.815 464.237 297.074 561.667 319.926C659.096 342.778 755.071 274.222 852.5 285.648C949.929 297.074 1045.9 388.481 1143.33 388.481C1240.76 388.481 1336.74 297.074 1434.17 274.222C1531.6 251.37 1627.57 297.074 1677.01 319.926L1725 342.778V617H1677.01C1627.57 617 1531.6 617 1434.17 617C1336.74 617 1240.76 617 1143.33 617C1045.9 617 949.929 617 852.5 617C755.071 617 659.096 617 561.667 617C464.237 617 368.262 617 270.833 617C173.404 617 77.4292 617 27.9875 617H-20V0Z" stroke="black"/>
<defs>
<linearGradient id="paint0_linear_10_425" x1="862" y1="70" x2="862" y2="443" gradientUnits="userSpaceOnUse">
<stop stop-color="white"/>
<stop offset="1" stop-color="white" stop-opacity="0"/>
</linearGradient>
<linearGradient id="paint1_linear_10_425" x1="852.5" y1="0" x2="852.5" y2="617" gradientUnits="userSpaceOnUse">
<stop stop-color="#3F3D56"/>
<stop offset="1" stop-color="#3F3D56" stop-opacity="0"/>
</linearGradient>
</defs>
</svg>
